<?xml version="1.0" encoding="UTF-8" standalone="no"?>
<!-- Created with Inkscape (http://www.inkscape.org/) -->

<svg
   width="20in"
   height="11.614173in"
   viewBox="0 0 508 294.99999"
   version="1.1"
   id="lcio-tpl-gf-imp"
   inkscape:version="1.4 (86a8ad7, 2024-10-11)"
   sodipodi:docname="sheet1.svg"
   xmlns:inkscape="http://www.inkscape.org/namespaces/inkscape"
   xmlns:sodipodi="http://sodipodi.sourceforge.net/DTD/sodipodi-0.dtd"
   xmlns="http://www.w3.org/2000/svg"
   xmlns:svg="http://www.w3.org/2000/svg">
  <defs
     id="defs2" />
  <sodipodi:namedview
     id="base"
     pagecolor="#ffffff"
     bordercolor="#666666"
     borderopacity="1.0"
     inkscape:pageopacity="0.0"
     inkscape:pageshadow="2"
     inkscape:zoom="0.43126148"
     inkscape:cx="1290.4004"
     inkscape:cy="505.49378"
     inkscape:document-units="in"
     inkscape:current-layer="design"
     showgrid="false"
     inkscape:showpageshadow="true"
     showguides="true"
     inkscape:guide-bbox="true"
     units="mm"
     inkscape:lockguides="false"
     inkscape:snap-page="true"
     inkscape:pagecheckerboard="1"
     inkscape:deskcolor="#505050"
     inkscape:window-width="1920"
     inkscape:window-height="1008"
     inkscape:window-x="-9"
     inkscape:window-y="34"
     inkscape:window-maximized="1">
    <sodipodi:guide
       position="0.5,294.5"
       orientation="0,1"
       id="guide-top"
       inkscape:locked="false"
       inkscape:label="Top"
       inkscape:color="rgb(0,0,255)" />
    <sodipodi:guide
       position="0.5,16"
       orientation="0,1"
       id="guide-bottom"
       inkscape:locked="false"
       inkscape:label="Bottom"
       inkscape:color="rgb(0,0,255)" />
    <sodipodi:guide
       position="247.75,155.25"
       orientation="0,1"
       id="guide-hcenter"
       inkscape:locked="false"
       inkscape:label=""
       inkscape:color="rgb(0,0,255)" />
    <sodipodi:guide
       position="18,294.5"
       orientation="1,0"
       id="guide-eng-left"
       inkscape:locked="false"
       inkscape:label="Engrave left"
       inkscape:color="rgb(127,0,255)" />
    <sodipodi:guide
       position="477.5,294.5"
       orientation="1,0"
       id="guide-eng-right"
       inkscape:locked="false"
       inkscape:label="Engrave right"
       inkscape:color="rgb(127,0,255)" />
    <sodipodi:guide
       position="247.75,155.25"
       orientation="1,0"
       id="guide-eng-vcenter"
       inkscape:locked="false"
       inkscape:label=""
       inkscape:color="rgb(127,0,255)" />
    <sodipodi:guide
       position="0.5,294.5"
       orientation="1,0"
       id="guide-cut-left"
       inkscape:locked="false"
       inkscape:label="Cut left"
       inkscape:color="rgb(255,0,255)" />
    <sodipodi:guide
       position="494.5,294.5"
       orientation="1,0"
       id="guide-cut-right"
       inkscape:locked="false"
       inkscape:label="Cut right"
       inkscape:color="rgb(255,0,255)" />
    <sodipodi:guide
       position="247.5,155.25"
       orientation="1,0"
       id="guide-cut-vcenter"
       inkscape:locked="false"
       inkscape:label=""
       inkscape:color="rgb(255,0,255)" />
    <inkscape:grid
       type="xygrid"
       id="grid656"
       originx="0"
       originy="0"
       spacingy="1"
       spacingx="1"
       units="mm" />
    <sodipodi:guide
       position="406.4,269.6"
       orientation="-1,0"
       id="guide6"
       inkscape:locked="false"
       inkscape:label="End of Sheet"
       inkscape:color="rgb(229,165,10)" />
  </sodipodi:namedview>
  <g
     inkscape:label="Design"
     inkscape:groupmode="layer"
     id="design"
     transform="translate(0,-2.0000455)">
    <rect
       style="fill:none;fill-rule:evenodd;stroke:#000000;stroke-width:0.294985;stroke-opacity:1"
       id="side2"
       width="76.200005"
       height="184.15001"
       x="199.97002"
       y="-195.00066"
       transform="rotate(90)"
       inkscape:label="Side2" />
    <rect
       style="fill:none;fill-rule:evenodd;stroke:#000000;stroke-width:0.294985;stroke-opacity:1"
       id="side1"
       width="76.200005"
       height="184.15001"
       x="199.82666"
       y="-383.05066"
       transform="rotate(90)"
       inkscape:label="Side1" />
    <path
       id="front"
       style="fill:none;fill-rule:evenodd;stroke:#000000;stroke-width:0.241362;stroke-opacity:1"
       d="M 374.77073,8.4708367 130.17926,8.7139417 130.19133,27.4413 6.4706811,27.579699 V 192.62084 H 374.77073 Z"
       sodipodi:nodetypes="ccccccc"
       inkscape:label="Front" />
    <path
       style="font-size:6.35px;line-height:1.25;font-family:Sans;-inkscape-font-specification:Sans;letter-spacing:0px;word-spacing:0px;fill:#ff00ff;stroke-width:0.264583"
       d="m -362.6581,18.242256 h -0.58291 v -1.971972 q 0,-0.238746 -0.0279,-0.446485 -0.0279,-0.21084 -0.10232,-0.328662 -0.0775,-0.130225 -0.22325,-0.192236 -0.14572,-0.06511 -0.37827,-0.06511 -0.23874,0 -0.49919,0.117823 -0.26045,0.117822 -0.4992,0.300757 v 2.585888 h -0.58291 v -4.824511 h 0.58291 v 1.745629 q 0.27286,-0.226342 0.56431,-0.353466 0.29146,-0.127124 0.59841,-0.127124 0.56121,0 0.85576,0.337963 0.29456,0.337964 0.29456,0.973584 z m 2.92075,-0.03101 q -0.16433,0.04341 -0.35967,0.07131 -0.19223,0.02791 -0.34416,0.02791 -0.5302,0 -0.80615,-0.285254 -0.27596,-0.285254 -0.27596,-0.914673 v -1.841748 h -0.39377 v -0.489892 h 0.39377 v -0.995288 h 0.58292 v 0.995288 h 1.20302 v 0.489892 h -1.20302 v 1.578199 q 0,0.272851 0.0124,0.42788 0.0124,0.151929 0.0868,0.285254 0.0682,0.124024 0.18604,0.182935 0.12092,0.05581 0.36587,0.05581 0.14263,0 0.29765,-0.04031 0.15503,-0.04341 0.22325,-0.07131 h 0.031 z m 2.50217,0 q -0.16433,0.04341 -0.35966,0.07131 -0.19224,0.02791 -0.34417,0.02791 -0.5302,0 -0.80615,-0.285254 -0.27595,-0.285254 -0.27595,-0.914673 v -1.841748 h -0.39378 v -0.489892 h 0.39378 v -0.995288 h 0.58291 v 0.995288 h 1.20302 v 0.489892 h -1.20302 v 1.578199 q 0,0.272851 0.0124,0.42788 0.0124,0.151929 0.0868,0.285254 0.0682,0.124024 0.18603,0.182935 0.12092,0.05581 0.36587,0.05581 0.14263,0 0.29766,-0.04031 0.15503,-0.04341 0.22324,-0.07131 h 0.031 z m 3.75171,-1.742529 q 0,0.42168 -0.12092,0.772046 -0.12092,0.347266 -0.34106,0.589111 -0.20464,0.229444 -0.48369,0.356568 -0.27596,0.124023 -0.58602,0.124023 -0.26975,0 -0.48989,-0.05891 -0.21704,-0.05891 -0.44338,-0.182935 v 1.451075 h -0.58291 v -4.740796 h 0.58291 v 0.362768 q 0.23254,-0.195337 0.5209,-0.325561 0.29145,-0.133325 0.62011,-0.133325 0.62632,0 0.97359,0.474389 0.35036,0.471289 0.35036,1.311548 z m -0.60151,0.0155 q 0,-0.626318 -0.21394,-0.936377 -0.21394,-0.310059 -0.65732,-0.310059 -0.25115,0 -0.5054,0.108521 -0.25425,0.10852 -0.48679,0.285254 v 1.962671 q 0.24805,0.111621 0.42478,0.151928 0.17983,0.04031 0.40618,0.04031 0.48679,0 0.75964,-0.328662 0.27285,-0.328662 0.27285,-0.973584 z m 3.98425,0.759644 q 0,0.474389 -0.39377,0.778247 -0.39067,0.303857 -1.0697,0.303857 -0.38448,0 -0.70694,-0.08992 -0.31936,-0.09302 -0.5364,-0.201538 v -0.654224 h 0.031 q 0.27595,0.20774 0.61391,0.331763 0.33797,0.120923 0.64803,0.120923 0.38447,0 0.60151,-0.124024 0.21704,-0.124023 0.21704,-0.390673 0,-0.204639 -0.11782,-0.310059 -0.11782,-0.10542 -0.45269,-0.179834 -0.12402,-0.02791 -0.32556,-0.06511 -0.19844,-0.03721 -0.36277,-0.08062 -0.45578,-0.120922 -0.64802,-0.353466 -0.18914,-0.235645 -0.18914,-0.576709 0,-0.213941 0.0868,-0.403076 0.0899,-0.189136 0.26975,-0.337964 0.17364,-0.145728 0.44029,-0.229444 0.26975,-0.08682 0.60151,-0.08682 0.31006,0 0.62632,0.07752 0.31936,0.07441 0.5302,0.182934 v 0.623218 h -0.031 q -0.22324,-0.164331 -0.5426,-0.275952 -0.31936,-0.114722 -0.62632,-0.114722 -0.31936,0 -0.5395,0.124023 -0.22014,0.120923 -0.22014,0.362769 0,0.21394 0.13332,0.322461 0.13023,0.10852 0.42168,0.176733 0.16123,0.03721 0.35967,0.07441 0.20154,0.03721 0.33486,0.06821 0.40618,0.09302 0.62632,0.319361 0.22014,0.229443 0.22014,0.607715 z m 2.07429,-1.581299 h -0.74104 v -0.883667 h 0.74104 z m 0,2.579687 h -0.74104 v -0.883667 h 0.74104 z m 3.73621,-4.824511 -2.22312,5.767089 h -0.5364 l 2.21382,-5.767089 z m 2.88355,0 -2.22312,5.767089 h -0.53641 l 2.21382,-5.767089 z m 3.68659,4.824511 h -0.58291 v -1.971972 q 0,-0.238746 -0.0279,-0.446485 -0.0279,-0.21084 -0.10232,-0.328662 -0.0775,-0.130225 -0.22325,-0.192236 -0.14572,-0.06511 -0.37827,-0.06511 -0.23874,0 -0.49919,0.117823 -0.26045,0.117822 -0.4992,0.300757 v 2.585888 h -0.58291 v -4.824511 h 0.58291 v 1.745629 q 0.27286,-0.226342 0.56431,-0.353466 0.29146,-0.127124 0.59841,-0.127124 0.56121,0 0.85577,0.337963 0.29455,0.337964 0.29455,0.973584 z m 4.07417,-1.730127 q 0,0.84646 -0.43408,1.336353 -0.43408,0.489892 -1.16272,0.489892 -0.73484,0 -1.16892,-0.489892 -0.43098,-0.489893 -0.43098,-1.336353 0,-0.84646 0.43098,-1.336352 0.43408,-0.492993 1.16892,-0.492993 0.72864,0 1.16272,0.492993 0.43408,0.489892 0.43408,1.336352 z m -0.60151,0 q 0,-0.672827 -0.26355,-0.998388 -0.26355,-0.328663 -0.73174,-0.328663 -0.47439,0 -0.73794,0.328663 -0.26045,0.325561 -0.26045,0.998388 0,0.651123 0.26355,0.989087 0.26355,0.334863 0.73484,0.334863 0.46509,0 0.72864,-0.331762 0.26665,-0.334864 0.26665,-0.992188 z m 6.55774,1.730127 h -0.58291 v -1.971972 q 0,-0.223243 -0.0217,-0.430982 -0.0186,-0.207739 -0.0837,-0.331763 -0.0713,-0.133325 -0.20464,-0.201538 -0.13333,-0.06821 -0.38447,-0.06821 -0.24495,0 -0.4899,0.124024 -0.24494,0.120923 -0.48989,0.310058 0.009,0.07131 0.0155,0.167432 0.006,0.09302 0.006,0.186035 v 2.216919 h -0.58291 v -1.971972 q 0,-0.229444 -0.0217,-0.434082 -0.0186,-0.20774 -0.0837,-0.331763 -0.0713,-0.133325 -0.20463,-0.198438 -0.13333,-0.06821 -0.38448,-0.06821 -0.23874,0 -0.48059,0.117823 -0.23874,0.117822 -0.47749,0.300757 v 2.585888 h -0.58291 v -3.463354 h 0.58291 v 0.384472 q 0.27285,-0.226342 0.5426,-0.353466 0.27286,-0.127124 0.57981,-0.127124 0.35347,0 0.59842,0.148828 0.24804,0.148828 0.36897,0.412378 0.35346,-0.297657 0.64492,-0.427881 0.29145,-0.133325 0.62322,-0.133325 0.5705,0 0.84025,0.347265 0.27286,0.344165 0.27286,0.964282 z m 4.02146,-1.671216 h -2.55178 q 0,0.319361 0.0961,0.558106 0.0961,0.235644 0.26355,0.387573 0.16123,0.148828 0.38138,0.223242 0.22324,0.07441 0.48989,0.07441 0.35347,0 0.71003,-0.139526 0.35967,-0.142627 0.5116,-0.279053 h 0.031 v 0.63562 q -0.29456,0.124024 -0.60152,0.20774 -0.30696,0.08371 -0.64492,0.08371 -0.86196,0 -1.34565,-0.465087 -0.4837,-0.468189 -0.4837,-1.327051 0,-0.849561 0.46199,-1.348755 0.46509,-0.499194 1.22163,-0.499194 0.70073,0 1.07901,0.409277 0.38137,0.409277 0.38137,1.16272 z m -0.56741,-0.446484 q -0.003,-0.458887 -0.23254,-0.710034 -0.22635,-0.251148 -0.69143,-0.251148 -0.46819,0 -0.74725,0.275953 -0.27595,0.275952 -0.31315,0.685229 z m 2.40295,2.1177 h -0.74104 v -0.883667 h 0.74104 z m 3.86954,0 h -2.79673 v -0.430981 l 2.01848,-2.545581 h -1.97507 v -0.486792 h 2.70061 v 0.415478 l -2.02779,2.554883 h 2.0805 z m 3.51606,0 h -0.57981 v -0.36897 q -0.0775,0.05271 -0.21084,0.148829 -0.13022,0.09302 -0.25425,0.148828 -0.14572,0.07131 -0.33486,0.117822 -0.18914,0.04961 -0.44338,0.04961 -0.46819,0 -0.79375,-0.310058 -0.32556,-0.310059 -0.32556,-0.79065 0,-0.393774 0.16743,-0.63562 0.17053,-0.244946 0.48369,-0.384472 0.31626,-0.139527 0.75964,-0.189136 0.44339,-0.04961 0.95188,-0.07441 v -0.08992 q 0,-0.198438 -0.0713,-0.328662 -0.0682,-0.130225 -0.19844,-0.204639 -0.12402,-0.07131 -0.29766,-0.09612 -0.17363,-0.02481 -0.36276,-0.02481 -0.22945,0 -0.5116,0.06201 -0.28215,0.05891 -0.58291,0.173633 h -0.031 v -0.592212 q 0.17054,-0.04651 0.493,-0.10232 0.32246,-0.05581 0.63562,-0.05581 0.36587,0 0.63562,0.06201 0.27285,0.05891 0.47129,0.204638 0.19533,0.142627 0.29765,0.36897 0.10232,0.226343 0.10232,0.561206 z m -0.57981,-0.852661 v -0.964282 q -0.26665,0.0155 -0.62942,0.04651 -0.35967,0.03101 -0.5705,0.08992 -0.25115,0.07131 -0.40618,0.223242 -0.15503,0.148828 -0.15503,0.412378 0,0.297656 0.17983,0.449585 0.17984,0.148828 0.54881,0.148828 0.30695,0 0.5612,-0.117822 0.25425,-0.120923 0.47129,-0.288355 z m 4.26331,0.63562 q -0.29146,0.139527 -0.55501,0.217041 -0.26045,0.07751 -0.555,0.07751 -0.37517,0 -0.68833,-0.108521 -0.31316,-0.111621 -0.5364,-0.334863 -0.22635,-0.223242 -0.35037,-0.564307 -0.12402,-0.341064 -0.12402,-0.79685 0,-0.849561 0.46508,-1.333252 0.46819,-0.483692 1.23404,-0.483692 0.29765,0 0.58291,0.08372 0.28835,0.08372 0.5271,0.204639 v 0.648022 h -0.031 q -0.26665,-0.207739 -0.5519,-0.31936 -0.28216,-0.111621 -0.55191,-0.111621 -0.49609,0 -0.78445,0.334863 -0.28525,0.331763 -0.28525,0.976685 0,0.626318 0.27905,0.964282 0.28216,0.334863 0.79065,0.334863 0.17674,0 0.35967,-0.04651 0.18294,-0.04651 0.32866,-0.120923 0.12713,-0.06511 0.23875,-0.136426 0.11162,-0.07441 0.17673,-0.127124 h 0.031 z m 5.10356,-3.246313 -0.90227,3.463354 h -0.5395 l -0.88987,-2.669604 -0.88367,2.669604 h -0.5364 l -0.91157,-3.463354 h 0.60771 l 0.63562,2.682007 0.86507,-2.682007 h 0.48059 l 0.88677,2.682007 0.60151,-2.682007 z m 3.79202,1.733227 q 0,0.84646 -0.43409,1.336353 -0.43408,0.489892 -1.16271,0.489892 -0.73484,0 -1.16893,-0.489892 -0.43098,-0.489893 -0.43098,-1.336353 0,-0.84646 0.43098,-1.336352 0.43409,-0.492993 1.16893,-0.492993 0.72863,0 1.16271,0.492993 0.43409,0.489892 0.43409,1.336352 z m -0.60152,0 q 0,-0.672827 -0.26355,-0.998388 -0.26355,-0.328663 -0.73173,-0.328663 -0.47439,0 -0.73794,0.328663 -0.26045,0.325561 -0.26045,0.998388 0,0.651123 0.26355,0.989087 0.26355,0.334863 0.73484,0.334863 0.46508,0 0.72863,-0.331762 0.26665,-0.334864 0.26665,-0.992188 z m 2.0929,1.730127 h -0.58291 v -4.824511 h 0.58291 z m 3.01687,-4.260205 h -0.031 q -0.0961,-0.02791 -0.25114,-0.05581 -0.15503,-0.03101 -0.27286,-0.03101 -0.37517,0 -0.5457,0.167431 -0.16743,0.164331 -0.16743,0.598413 v 0.117823 h 1.0511 v 0.489892 h -1.0325 v 2.973462 h -0.58291 v -2.973462 h -0.39377 v -0.489892 h 0.39377 V 14.66418 q 0,-0.617017 0.30696,-0.945679 0.30696,-0.331762 0.88677,-0.331762 0.19534,0 0.35036,0.0186 0.15813,0.0186 0.28836,0.04341 z m 0.94878,4.260205 h -0.74104 v -0.883667 h 0.74104 z m 3.91914,-0.217041 q -0.29146,0.139527 -0.55501,0.217041 -0.26045,0.07751 -0.555,0.07751 -0.37517,0 -0.68833,-0.108521 -0.31316,-0.111621 -0.5364,-0.334863 -0.22635,-0.223242 -0.35037,-0.564307 -0.12402,-0.341064 -0.12402,-0.79685 0,-0.849561 0.46509,-1.333252 0.46818,-0.483692 1.23403,-0.483692 0.29766,0 0.58291,0.08372 0.28835,0.08372 0.5271,0.204639 v 0.648022 h -0.031 q -0.26665,-0.207739 -0.5519,-0.31936 -0.28215,-0.111621 -0.55191,-0.111621 -0.49609,0 -0.78444,0.334863 -0.28526,0.331763 -0.28526,0.976685 0,0.626318 0.27905,0.964282 0.28216,0.334863 0.79065,0.334863 0.17674,0 0.35967,-0.04651 0.18294,-0.04651 0.32866,-0.120923 0.12713,-0.06511 0.23875,-0.136426 0.11162,-0.07441 0.17673,-0.127124 h 0.031 z m 3.699,-1.513086 q 0,0.84646 -0.43408,1.336353 -0.43408,0.489892 -1.16272,0.489892 -0.73484,0 -1.16892,-0.489892 -0.43098,-0.489893 -0.43098,-1.336353 0,-0.84646 0.43098,-1.336352 0.43408,-0.492993 1.16892,-0.492993 0.72864,0 1.16272,0.492993 0.43408,0.489892 0.43408,1.336352 z m -0.60151,0 q 0,-0.672827 -0.26355,-0.998388 -0.26355,-0.328663 -0.73174,-0.328663 -0.47439,0 -0.73794,0.328663 -0.26045,0.325561 -0.26045,0.998388 0,0.651123 0.26355,0.989087 0.26355,0.334863 0.73484,0.334863 0.46509,0 0.72864,-0.331762 0.26665,-0.334864 0.26665,-0.992188 z m 6.55773,1.730127 h -0.58291 v -1.971972 q 0,-0.223243 -0.0217,-0.430982 -0.0186,-0.207739 -0.0837,-0.331763 -0.0713,-0.133325 -0.20464,-0.201538 -0.13332,-0.06821 -0.38447,-0.06821 -0.24494,0 -0.48989,0.124024 -0.24495,0.120923 -0.48989,0.310058 0.009,0.07131 0.0155,0.167432 0.006,0.09302 0.006,0.186035 v 2.216919 h -0.58291 v -1.971972 q 0,-0.229444 -0.0217,-0.434082 -0.0186,-0.20774 -0.0837,-0.331763 -0.0713,-0.133325 -0.20464,-0.198438 -0.13332,-0.06821 -0.38447,-0.06821 -0.23875,0 -0.48059,0.117823 -0.23875,0.117822 -0.47749,0.300757 v 2.585888 h -0.58291 v -3.463354 h 0.58291 v 0.384472 q 0.27285,-0.226342 0.5426,-0.353466 0.27285,-0.127124 0.57981,-0.127124 0.35347,0 0.59841,0.148828 0.24805,0.148828 0.36897,0.412378 0.35347,-0.297657 0.64493,-0.427881 0.29145,-0.133325 0.62321,-0.133325 0.57051,0 0.84026,0.347265 0.27285,0.344165 0.27285,0.964282 z m 3.21531,-4.824511 -2.22312,5.767089 h -0.5364 l 2.21382,-5.767089 z m 4.94854,4.824511 h -0.61392 v -3.978052 l -1.28364,2.706812 h -0.36587 l -1.27434,-2.706812 v 3.978052 h -0.57361 v -4.616772 h 0.83716 l 1.23093,2.570385 1.19063,-2.570385 h 0.85266 z m 4.18889,-3.463354 -2.02159,4.740796 h -0.62321 l 0.64492,-1.444873 -1.37976,-3.295923 h 0.63252 l 1.0635,2.567285 1.0728,-2.567285 z m 4.29121,2.043286 q 0,0.344165 -0.13023,0.607715 -0.13022,0.263549 -0.35036,0.434082 -0.26045,0.204638 -0.57361,0.291455 -0.31006,0.08682 -0.79065,0.08682 h -1.63711 v -4.616772 h 1.36736 q 0.50539,0 0.75654,0.03721 0.25115,0.03721 0.48059,0.155029 0.25425,0.133325 0.36897,0.344165 0.11472,0.207739 0.11472,0.499194 0,0.328663 -0.16743,0.561207 -0.16743,0.229443 -0.44648,0.368969 v 0.0248 q 0.46819,0.09612 0.73794,0.412378 0.26975,0.313159 0.26975,0.79375 z m -1.0325,-2.080493 q 0,-0.167432 -0.0558,-0.282154 -0.0558,-0.114721 -0.17983,-0.186035 -0.14573,-0.08372 -0.35347,-0.102319 -0.20774,-0.0217 -0.51469,-0.0217 h -0.73174 v 1.333252 h 0.79375 q 0.28835,0 0.45888,-0.02791 0.17054,-0.03101 0.31626,-0.124023 0.14573,-0.09302 0.20464,-0.238745 0.062,-0.148828 0.062,-0.350366 z m 0.39378,2.105298 q 0,-0.279053 -0.0837,-0.443384 -0.0837,-0.164331 -0.30386,-0.279053 -0.14882,-0.07751 -0.36276,-0.09922 -0.21084,-0.0248 -0.5147,-0.0248 h -0.96428 v 1.717724 h 0.81235 q 0.40308,0 0.66043,-0.04031 0.25734,-0.04341 0.42167,-0.15503 0.17364,-0.120923 0.25425,-0.275952 0.0806,-0.155029 0.0806,-0.399975 z m 4.99194,-0.02481 q 0,0.344165 -0.13022,0.607715 -0.13022,0.263549 -0.35037,0.434082 -0.26045,0.204638 -0.5736,0.291455 -0.31006,0.08682 -0.79065,0.08682 h -1.63711 v -4.616772 h 1.36735 q 0.5054,0 0.75655,0.03721 0.25115,0.03721 0.48059,0.155029 0.25425,0.133325 0.36897,0.344165 0.11472,0.207739 0.11472,0.499194 0,0.328663 -0.16743,0.561207 -0.16743,0.229443 -0.44649,0.368969 v 0.0248 q 0.46819,0.09612 0.73794,0.412378 0.26975,0.313159 0.26975,0.79375 z m -1.03249,-2.080493 q 0,-0.167432 -0.0558,-0.282154 -0.0558,-0.114721 -0.17984,-0.186035 -0.14572,-0.08372 -0.35346,-0.102319 -0.20774,-0.0217 -0.5147,-0.0217 h -0.73174 v 1.333252 h 0.79375 q 0.28836,0 0.45889,-0.02791 0.17053,-0.03101 0.31626,-0.124023 0.14573,-0.09302 0.20464,-0.238745 0.062,-0.148828 0.062,-0.350366 z m 0.39377,2.105298 q 0,-0.279053 -0.0837,-0.443384 -0.0837,-0.164331 -0.30386,-0.279053 -0.14883,-0.07751 -0.36277,-0.09922 -0.21084,-0.0248 -0.5147,-0.0248 h -0.96428 v 1.717724 h 0.81236 q 0.40307,0 0.66042,-0.04031 0.25735,-0.04341 0.42168,-0.15503 0.17363,-0.120923 0.25425,-0.275952 0.0806,-0.155029 0.0806,-0.399975 z m 3.55637,-3.429248 -2.22312,5.767089 h -0.5364 l 2.21382,-5.767089 z m 2.6541,0.564306 h -0.031 q -0.0961,-0.02791 -0.25115,-0.05581 -0.15503,-0.03101 -0.27285,-0.03101 -0.37517,0 -0.54571,0.167431 -0.16743,0.164331 -0.16743,0.598413 v 0.117823 h 1.0511 v 0.489892 h -1.03249 v 2.973462 h -0.58291 v -2.973462 h -0.39378 v -0.489892 h 0.39378 V 14.66418 q 0,-0.617017 0.30695,-0.945679 0.30696,-0.331762 0.88677,-0.331762 0.19534,0 0.35037,0.0186 0.15813,0.0186 0.28835,0.04341 z m 0.99529,0.217041 h -0.65732 v -0.604614 h 0.65732 z m -0.0372,4.043164 h -0.58291 v -3.463354 h 0.58291 z m 1.74253,0 H -254.15 v -4.824511 h 0.58291 z m 2.95176,-0.03101 q -0.16433,0.04341 -0.35966,0.07131 -0.19224,0.02791 -0.34417,0.02791 -0.5302,0 -0.80615,-0.285254 -0.27595,-0.285254 -0.27595,-0.914673 v -1.841748 h -0.39378 v -0.489892 h 0.39378 v -0.995288 h 0.58291 v 0.995288 h 1.20302 v 0.489892 h -1.20302 v 1.578199 q 0,0.272851 0.0124,0.42788 0.0124,0.151929 0.0868,0.285254 0.0682,0.124024 0.18603,0.182935 0.12092,0.05581 0.36587,0.05581 0.14263,0 0.29766,-0.04031 0.15503,-0.04341 0.22324,-0.07131 h 0.031 z m 3.60288,-1.64021 h -2.55178 q 0,0.319361 0.0961,0.558106 0.0961,0.235644 0.26355,0.387573 0.16124,0.148828 0.38138,0.223242 0.22324,0.07441 0.48989,0.07441 0.35347,0 0.71003,-0.139526 0.35967,-0.142627 0.5116,-0.279053 h 0.031 v 0.63562 q -0.29456,0.124024 -0.60152,0.20774 -0.30696,0.08371 -0.64492,0.08371 -0.86196,0 -1.34565,-0.465087 -0.4837,-0.468189 -0.4837,-1.327051 0,-0.849561 0.46199,-1.348755 0.46509,-0.499194 1.22163,-0.499194 0.70074,0 1.07901,0.409277 0.38137,0.409277 0.38137,1.16272 z m -0.56741,-0.446484 q -0.003,-0.458887 -0.23254,-0.710034 -0.22635,-0.251148 -0.69143,-0.251148 -0.46819,0 -0.74724,0.275953 -0.27596,0.275952 -0.31316,0.685229 z m 3.61218,-0.710034 h -0.031 q -0.13023,-0.03101 -0.25425,-0.04341 -0.12092,-0.0155 -0.28835,-0.0155 -0.26976,0 -0.5209,0.120923 -0.25115,0.117822 -0.48369,0.306958 v 2.458764 h -0.58291 v -3.463354 h 0.58291 v 0.511596 q 0.34726,-0.279052 0.61081,-0.393774 0.26665,-0.117822 0.5426,-0.117822 0.15193,0 0.22015,0.0093 0.0682,0.0062 0.20463,0.02791 z m 0.60152,2.827734 h -0.74104 v -0.883667 h 0.74104 z m 4.254,0 h -0.58291 v -1.971972 q 0,-0.238746 -0.0279,-0.446485 -0.0279,-0.21084 -0.10232,-0.328662 -0.0775,-0.130225 -0.22324,-0.192236 -0.14573,-0.06511 -0.37827,-0.06511 -0.23875,0 -0.4992,0.117823 -0.26045,0.117822 -0.49919,0.300757 v 2.585888 h -0.58291 v -4.824511 h 0.58291 v 1.745629 q 0.27285,-0.226342 0.5643,-0.353466 0.29146,-0.127124 0.59842,-0.127124 0.5612,0 0.85576,0.337963 0.29455,0.337964 0.29455,0.973584 z m 2.92075,-0.03101 q -0.16433,0.04341 -0.35966,0.07131 -0.19224,0.02791 -0.34417,0.02791 -0.5302,0 -0.80615,-0.285254 -0.27595,-0.285254 -0.27595,-0.914673 v -1.841748 h -0.39378 v -0.489892 h 0.39378 v -0.995288 h 0.58291 v 0.995288 h 1.20302 v 0.489892 h -1.20302 v 1.578199 q 0,0.272851 0.0124,0.42788 0.0124,0.151929 0.0868,0.285254 0.0682,0.124024 0.18603,0.182935 0.12092,0.05581 0.36587,0.05581 0.14263,0 0.29766,-0.04031 0.15502,-0.04341 0.22324,-0.07131 h 0.031 z m 5.7578,0.03101 h -0.58291 v -1.971972 q 0,-0.223243 -0.0217,-0.430982 -0.0186,-0.207739 -0.0837,-0.331763 -0.0713,-0.133325 -0.20464,-0.201538 -0.13332,-0.06821 -0.38447,-0.06821 -0.24495,0 -0.48989,0.124024 -0.24495,0.120923 -0.4899,0.310058 0.009,0.07131 0.0155,0.167432 0.006,0.09302 0.006,0.186035 v 2.216919 h -0.58291 v -1.971972 q 0,-0.229444 -0.0217,-0.434082 -0.0186,-0.20774 -0.0837,-0.331763 -0.0713,-0.133325 -0.20464,-0.198438 -0.13333,-0.06821 -0.38447,-0.06821 -0.23875,0 -0.48059,0.117823 -0.23875,0.117822 -0.47749,0.300757 v 2.585888 h -0.58291 v -3.463354 h 0.58291 v 0.384472 q 0.27285,-0.226342 0.5426,-0.353466 0.27285,-0.127124 0.57981,-0.127124 0.35346,0 0.59841,0.148828 0.24805,0.148828 0.36897,0.412378 0.35347,-0.297657 0.64492,-0.427881 0.29146,-0.133325 0.62322,-0.133325 0.57051,0 0.84026,0.347265 0.27285,0.344165 0.27285,0.964282 z m 1.71152,0 h -0.58291 v -4.824511 h 0.58291 z m 5.22138,-1.739429 h -1.93477 v -0.561206 h 1.93477 z m 6.3314,1.739429 h -3.1254 v -0.648022 q 0.32557,-0.279053 0.65113,-0.558106 0.32866,-0.279052 0.61081,-0.555005 0.59532,-0.576709 0.81546,-0.914672 0.22014,-0.341065 0.22014,-0.734839 0,-0.359668 -0.23875,-0.561206 -0.23564,-0.204639 -0.66042,-0.204639 -0.28215,0 -0.61082,0.09922 -0.32866,0.09922 -0.64182,0.303857 h -0.031 V 13.81772 q 0.22014,-0.10852 0.58601,-0.198437 0.36897,-0.08992 0.71313,-0.08992 0.71004,0 1.11311,0.344165 0.40308,0.341064 0.40308,0.927075 0,0.26355 -0.0682,0.492993 -0.0651,0.226343 -0.19534,0.430981 -0.12092,0.192237 -0.28526,0.378272 -0.16123,0.186035 -0.39377,0.412378 -0.33176,0.325561 -0.68523,0.632519 -0.35347,0.303858 -0.66042,0.564307 h 2.48357 z m 4.03077,-2.309936 q 0,1.243335 -0.39068,1.826245 -0.38757,0.579809 -1.20613,0.579809 -0.83095,0 -1.21543,-0.589111 -0.38137,-0.589111 -0.38137,-1.810742 0,-1.230933 0.38758,-1.816943 0.38757,-0.589112 1.20922,-0.589112 0.83096,0 1.21233,0.598413 0.38448,0.595313 0.38448,1.801441 z m -0.81546,1.407666 q 0.10852,-0.251148 0.14573,-0.589112 0.0403,-0.341064 0.0403,-0.818554 0,-0.471289 -0.0403,-0.818555 -0.0372,-0.347266 -0.14883,-0.589111 -0.10852,-0.238745 -0.29765,-0.359668 -0.18604,-0.120923 -0.4806,-0.120923 -0.29145,0 -0.48369,0.120923 -0.18913,0.120923 -0.30075,0.365869 -0.10542,0.229443 -0.14573,0.598413 -0.0372,0.36897 -0.0372,0.809253 0,0.483691 0.0341,0.809253 0.0341,0.325561 0.14573,0.58291 0.10232,0.241846 0.28835,0.36897 0.18914,0.127124 0.49919,0.127124 0.29146,0 0.4837,-0.120923 0.19223,-0.120923 0.29765,-0.365869 z m 4.85861,0.90227 h -3.12539 v -0.648022 q 0.32557,-0.279053 0.65113,-0.558106 0.32866,-0.279052 0.61081,-0.555005 0.59531,-0.576709 0.81546,-0.914672 0.22014,-0.341065 0.22014,-0.734839 0,-0.359668 -0.23875,-0.561206 -0.23564,-0.204639 -0.66042,-0.204639 -0.28216,0 -0.61082,0.09922 -0.32866,0.09922 -0.64182,0.303857 h -0.031 V 13.81772 q 0.22014,-0.10852 0.58601,-0.198437 0.36897,-0.08992 0.71313,-0.08992 0.71003,0 1.11311,0.344165 0.40308,0.341064 0.40308,0.927075 0,0.26355 -0.0682,0.492993 -0.0651,0.226343 -0.19533,0.430981 -0.12093,0.192237 -0.28526,0.378272 -0.16123,0.186035 -0.39377,0.412378 -0.33176,0.325561 -0.68523,0.632519 -0.35347,0.303858 -0.66043,0.564307 h 2.48357 z m 3.99977,-1.466577 q 0,0.322461 -0.11782,0.617017 -0.11783,0.294555 -0.32246,0.496093 -0.22325,0.217041 -0.5333,0.334864 -0.30696,0.114721 -0.71314,0.114721 -0.37827,0 -0.72864,-0.08062 -0.35036,-0.07752 -0.59221,-0.189136 V 17.4144 h 0.0434 q 0.25425,0.16123 0.59531,0.275952 0.34107,0.111621 0.66973,0.111621 0.22014,0 0.42478,-0.06201 0.20774,-0.06201 0.36897,-0.217041 0.13642,-0.133325 0.20464,-0.31936 0.0713,-0.186035 0.0713,-0.430982 0,-0.238745 -0.0837,-0.403076 -0.0806,-0.164331 -0.22634,-0.26355 -0.16123,-0.117822 -0.39377,-0.164331 -0.22945,-0.04961 -0.5147,-0.04961 -0.27285,0 -0.5271,0.03721 -0.25115,0.03721 -0.43408,0.07441 v -2.378149 h 2.77812 v 0.542602 h -2.17971 v 1.227832 q 0.13333,-0.0124 0.27285,-0.0186 0.13953,-0.0062 0.24185,-0.0062 0.37517,0 0.65732,0.06511 0.28216,0.06201 0.5178,0.223242 0.24805,0.170532 0.38447,0.440283 0.13643,0.269751 0.13643,0.675928 z m 5.09116,-0.272852 h -1.93477 v -0.561206 h 1.93477 z m 5.44152,-1.088305 h -0.031 q -0.13023,-0.03101 -0.25425,-0.04341 -0.12092,-0.0155 -0.28835,-0.0155 -0.26976,0 -0.5209,0.120923 -0.25115,0.117822 -0.48369,0.306958 v 2.458764 h -0.58291 v -3.463354 h 0.58291 v 0.511596 q 0.34726,-0.279052 0.61081,-0.393774 0.26665,-0.117822 0.5426,-0.117822 0.15193,0 0.22014,0.0093 0.0682,0.0062 0.20464,0.02791 z m 3.44786,1.156518 h -2.55178 q 0,0.319361 0.0961,0.558106 0.0961,0.235644 0.26355,0.387573 0.16123,0.148828 0.38138,0.223242 0.22324,0.07441 0.48989,0.07441 0.35347,0 0.71003,-0.139526 0.35967,-0.142627 0.5116,-0.279053 h 0.031 v 0.63562 q -0.29456,0.124024 -0.60152,0.20774 -0.30696,0.08371 -0.64492,0.08371 -0.86196,0 -1.34565,-0.465087 -0.4837,-0.468189 -0.4837,-1.327051 0,-0.849561 0.46199,-1.348755 0.46509,-0.499194 1.22163,-0.499194 0.70073,0 1.07901,0.409277 0.38137,0.409277 0.38137,1.16272 z m -0.56741,-0.446484 q -0.003,-0.458887 -0.23254,-0.710034 -0.22635,-0.251148 -0.69143,-0.251148 -0.46819,0 -0.74724,0.275953 -0.27596,0.275952 -0.31316,0.685229 z m 4.44624,-1.345654 -1.40146,3.463354 h -0.58601 l -1.39217,-3.463354 h 0.63252 l 1.0728,2.756421 1.06351,-2.756421 z m 3.55017,3.463354 h -2.49908 v -0.471289 h 0.96119 v -3.094385 h -0.96119 v -0.421679 q 0.19534,0 0.41858,-0.03101 0.22325,-0.03411 0.33797,-0.09612 0.14262,-0.07752 0.22324,-0.195337 0.0837,-0.120923 0.0961,-0.322461 h 0.48059 v 4.160986 h 0.94258 z m 2.20142,0 h -0.74104 v -0.883667 h 0.74104 z m 4.40283,-2.309936 q 0,1.243335 -0.39067,1.826245 -0.38757,0.579809 -1.20613,0.579809 -0.83096,0 -1.21543,-0.589111 -0.38137,-0.589111 -0.38137,-1.810742 0,-1.230933 0.38757,-1.816943 0.38758,-0.589112 1.20923,-0.589112 0.83096,0 1.21233,0.598413 0.38447,0.595313 0.38447,1.801441 z m -0.81545,1.407666 q 0.10852,-0.251148 0.14573,-0.589112 0.0403,-0.341064 0.0403,-0.818554 0,-0.471289 -0.0403,-0.818555 -0.0372,-0.347266 -0.14883,-0.589111 -0.10852,-0.238745 -0.29766,-0.359668 -0.18603,-0.120923 -0.48059,-0.120923 -0.29145,0 -0.48369,0.120923 -0.18914,0.120923 -0.30076,0.365869 -0.10542,0.229443 -0.14572,0.598413 -0.0372,0.36897 -0.0372,0.809253 0,0.483691 0.0341,0.809253 0.0341,0.325561 0.14572,0.58291 0.10232,0.241846 0.28836,0.36897 0.18913,0.127124 0.49919,0.127124 0.29146,0 0.48369,-0.120923 0.19224,-0.120923 0.29766,-0.365869 z"
       id="text3"
       inkscape:label="URL"
       transform="scale(-1,1)"
       aria-label="https://home.zacwolf.com/MyBB/filter.html - 2025 - rev1.0" />
  </g>
</svg>
